# This file uses centimeters as units for non-parametric coordinates.

mtllib ladrillosGPuerta.mtl
g default
v -11.446797 -0.035029 0.788764
v -6.043781 -0.035029 0.788764
v -11.446797 10.224961 0.788764
v -6.043781 10.224961 0.788764
v -11.446797 10.224961 0.663996
v -6.043781 10.224961 0.663996
v -11.446797 -0.035029 0.663996
v -6.043781 -0.035029 0.663996
v -9.810294 -0.035029 0.788764
v -9.810294 -0.035029 0.663996
v -9.810294 10.224961 0.663996
v -9.810294 10.224961 0.788764
v -7.249657 -0.035029 0.788764
v -7.249657 10.224961 0.788764
v -7.249657 10.224961 0.663996
v -7.249657 -0.035029 0.663996
v -11.446797 6.424497 0.788764
v -9.810294 6.424497 0.788764
v -7.249657 6.424497 0.788764
v -6.043781 6.424497 0.788764
v -6.043781 6.424497 0.663996
v -7.249657 6.424497 0.663996
v -9.810294 6.424497 0.663996
v -11.446797 6.424497 0.663996
vt 0.500000 -0.000000
vt 0.625000 0.000000
vt 0.375000 0.250000
vt 0.625000 0.250000
vt 0.375000 0.500000
vt 0.625000 0.500000
vt 0.375000 0.750000
vt 0.625000 0.750000
vt 0.375000 1.000000
vt 0.625000 1.000000
vt 0.875000 0.000000
vt 0.875000 0.250000
vt 0.500000 -0.000000
vt 0.500000 1.000000
vt 0.000000 -0.000000
vt 1.000000 -0.000000
vt 1.000000 1.000000
vt 0.000000 1.000000
vt 0.000000 1.000000
vt 1.000000 1.000000
vt 1.000000 -0.000000
vt 0.000000 -0.000000
vt 0.500000 1.000000
vt 0.302887 -0.000000
vt 0.450722 1.000000
vt 0.450722 0.750000
vt 0.302887 -0.000000
vt 0.302887 1.000000
vt 0.450722 0.500000
vt 0.450722 0.250000
vt 0.302887 1.000000
vt 0.776814 -0.000000
vt 0.569204 1.000000
vt 0.569204 0.250000
vt 0.776814 1.000000
vt 0.776815 1.000000
vt 0.569204 0.500000
vt 0.569204 0.750000
vt 0.776815 -0.000000
vt 0.500000 0.629584
vt 0.000000 0.629584
vt 0.302887 0.629584
vt 0.776814 0.629584
vt 1.000000 0.629584
vt 0.625000 0.157396
vt 1.000000 0.629584
vt 0.875000 0.157396
vt 0.776815 0.629584
vt 0.302887 0.629584
vt 0.500000 0.629584
vt 0.000000 0.629584
vn 0.000000 0.000000 1.000000
vn 0.000000 0.000000 1.000000
vn 0.000000 0.000000 1.000000
vn 0.000000 0.000000 1.000000
vn 0.000000 1.000000 0.000000
vn 0.000000 1.000000 0.000000
vn 0.000000 1.000000 0.000000
vn 0.000000 1.000000 0.000000
vn 0.000000 0.000000 -1.000000
vn 0.000000 0.000000 -1.000000
vn 0.000000 0.000000 -1.000000
vn 0.000000 0.000000 -1.000000
vn 0.000000 -1.000000 0.000000
vn 0.000000 -1.000000 0.000000
vn 0.000000 -1.000000 0.000000
vn 0.000000 -1.000000 0.000000
vn 1.000000 0.000000 0.000000
vn 1.000000 0.000000 0.000000
vn 1.000000 0.000000 0.000000
vn 1.000000 0.000000 0.000000
vn -1.000000 0.000000 0.000000
vn -1.000000 0.000000 0.000000
vn -1.000000 0.000000 0.000000
vn -1.000000 0.000000 0.000000
vn 0.000000 -1.000000 0.000000
vn 0.000000 -1.000000 0.000000
vn 0.000000 0.000000 -1.000000
vn 0.000000 0.000000 -1.000000
vn 0.000000 1.000000 0.000000
vn 0.000000 1.000000 0.000000
vn 0.000000 0.000000 1.000000
vn 0.000000 0.000000 1.000000
vn 0.000000 0.000000 1.000000
vn 0.000000 0.000000 1.000000
vn 0.000000 1.000000 0.000000
vn 0.000000 1.000000 0.000000
vn 0.000000 0.000000 -1.000000
vn 0.000000 0.000000 -1.000000
vn 0.000000 -1.000000 0.000000
vn 0.000000 -1.000000 0.000000
vn 0.000000 0.000000 1.000000
vn 0.000000 0.000000 1.000000
vn 0.000000 0.000000 1.000000
vn 0.000000 0.000000 1.000000
vn 1.000000 0.000000 0.000000
vn 1.000000 0.000000 0.000000
vn 0.000000 0.000000 -1.000000
vn 0.000000 0.000000 -1.000000
vn 0.000000 0.000000 -1.000000
vn 0.000000 0.000000 -1.000000
vn -1.000000 0.000000 0.000000
vn -1.000000 0.000000 0.000000
s 1
g pCube8
usemtl lambert5SG
f 12/31/1 18/42/2 19/43/3 14/35/4
s 2
f 11/29/5 12/30/6 14/34/7 15/37/8
s 3
f 22/48/9 23/49/10 11/28/11 15/36/12
s 4
f 9/25/13 10/26/14 16/38/15 13/33/16
s 5
f 20/45/17 21/47/18 6/12/19 4/4/20
s 6
f 24/50/21 17/40/22 3/14/23 5/23/24
s 4
f 7/7/25 10/26/14 9/25/13 1/9/26
s 3
f 5/19/27 11/28/11 23/49/10 24/51/28
s 2
f 3/3/29 12/30/6 11/29/5 5/5/30
s 1
f 17/41/31 18/42/2 12/31/1 3/18/32
f 14/35/4 19/43/3 20/44/33 4/17/34
s 2
f 15/37/8 14/34/7 4/4/35 6/6/36
s 3
f 21/46/37 22/48/9 15/36/12 6/20/38
s 4
f 13/33/16 16/38/15 8/8/39 2/10/40
s 1
f 1/15/41 9/24/42 18/42/2 17/41/31
f 20/44/33 19/43/3 13/32/43 2/16/44
s 5
f 2/2/45 8/11/46 21/47/18 20/45/17
s 3
f 16/39/47 22/48/9 21/46/37 8/21/48
f 24/51/28 23/49/10 10/27/49 7/22/50
s 6
f 7/1/51 1/13/52 17/40/22 24/50/21
