# This file uses centimeters as units for non-parametric coordinates.

mtllib puerta.mtl
g default
v -9.812790 0.158094 0.801406
v -7.260248 0.158094 0.801406
v -9.812790 6.512493 0.801406
v -7.260248 6.512493 0.801406
v -9.805500 6.512493 0.633735
v -7.307808 6.512493 0.633735
v -9.805500 0.158094 0.633735
v -7.307808 0.158094 0.633735
vt 0.000000 -0.000000
vt 1.000000 -0.000000
vt 1.000000 1.000000
vt 0.000000 1.000000
vt 1.000000 1.000000
vt 0.000000 1.000000
vt 1.000000 -0.000000
vt 0.000000 -0.000000
vn 0.000000 0.000000 1.000000
vn 0.000000 0.000000 1.000000
vn 0.000000 0.000000 1.000000
vn 0.000000 0.000000 1.000000
vn 0.000000 1.000000 -0.000000
vn 0.000000 1.000000 -0.000000
vn 0.000000 1.000000 -0.000000
vn 0.000000 1.000000 -0.000000
vn 0.000000 0.000000 -1.000000
vn 0.000000 0.000000 -1.000000
vn 0.000000 0.000000 -1.000000
vn 0.000000 0.000000 -1.000000
vn 0.000000 -1.000000 0.000002
vn 0.000000 -1.000000 0.000002
vn 0.000000 -1.000000 0.000002
vn 0.000000 -1.000000 0.000002
vn 0.962047 0.000000 -0.272885
vn 0.962047 0.000000 -0.272885
vn 0.962047 0.000000 -0.272885
vn 0.962047 0.000000 -0.272885
vn -0.999056 0.000000 -0.043436
vn -0.999056 0.000000 -0.043436
vn -0.999056 0.000000 -0.043436
vn -0.999056 0.000000 -0.043436
s off
g pCube23
usemtl lambert8SG
f 1/1/1 2/2/2 4/3/3 3/4/4
f 3/4/5 4/3/6 6/5/7 5/6/8
f 5/6/9 6/5/10 8/7/11 7/8/12
f 7/8/13 8/7/14 2/2/15 1/1/16
f 2/2/17 8/7/18 6/5/19 4/3/20
f 7/8/21 1/1/22 3/4/23 5/6/24
