# This file uses centimeters as units for non-parametric coordinates.

mtllib desayunador.mtl
g default
v -64.010308 3.831244 1.842645
v -64.114392 12.103317 1.768054
v -64.010308 3.841673 2.999137
v -64.114392 12.113745 2.924546
v -64.107403 3.841501 2.999139
v -64.211487 12.113574 2.924547
v -64.107403 3.831073 1.842647
v -64.211487 12.103146 1.768055
vt 0.375000 0.000000
vt 0.625000 0.000000
vt 0.625000 0.250000
vt 0.375000 0.250000
vt 0.625000 0.500000
vt 0.375000 0.500000
vt 0.625000 0.750000
vt 0.375000 0.750000
vt 0.625000 1.000000
vt 0.375000 1.000000
vt 0.875000 0.000000
vt 0.875000 0.250000
vt 0.125000 0.000000
vt 0.125000 0.250000
vn 0.999921 0.012581 -0.000113
vn 0.999921 0.012581 -0.000113
vn 0.999921 0.012581 -0.000113
vn 0.999921 0.012581 -0.000113
vn 0.000000 0.009017 0.999959
vn 0.000000 0.009017 0.999959
vn 0.000000 0.009017 0.999959
vn 0.000000 0.009017 0.999959
vn -0.999921 -0.012581 0.000113
vn -0.999921 -0.012581 0.000113
vn -0.999921 -0.012581 0.000113
vn -0.999921 -0.012581 0.000113
vn 0.000000 -0.009017 -0.999959
vn 0.000000 -0.009017 -0.999959
vn 0.000000 -0.009017 -0.999959
vn 0.000000 -0.009017 -0.999959
vn -0.001762 0.999958 -0.009017
vn -0.001762 0.999958 -0.009017
vn -0.001762 0.999958 -0.009017
vn -0.001762 0.999958 -0.009017
vn 0.001762 -0.999958 0.009017
vn 0.001762 -0.999958 0.009017
vn 0.001762 -0.999958 0.009017
vn 0.001762 -0.999958 0.009017
s off
g polySurface19 pCube15
usemtl lambert4SG
f 1/1/1 2/2/2 4/3/3 3/4/4
f 3/4/5 4/3/6 6/5/7 5/6/8
f 5/6/9 6/5/10 8/7/11 7/8/12
f 7/8/13 8/7/14 2/9/15 1/10/16
f 2/2/17 8/11/18 6/12/19 4/3/20
f 7/13/21 1/1/22 3/4/23 5/14/24
g default
v -64.010308 11.988033 16.304246
v -64.114392 11.988033 1.771390
v -64.010308 13.144573 16.304246
v -64.114392 13.144573 1.771390
v -64.107403 13.144573 16.304547
v -64.211487 13.144573 1.771691
v -64.107403 11.988033 16.304547
v -64.211487 11.988033 1.771691
vt 0.375000 0.000000
vt 0.625000 0.000000
vt 0.625000 0.250000
vt 0.375000 0.250000
vt 0.625000 0.500000
vt 0.375000 0.500000
vt 0.625000 0.750000
vt 0.375000 0.750000
vt 0.625000 1.000000
vt 0.375000 1.000000
vt 0.875000 0.000000
vt 0.875000 0.250000
vt 0.125000 0.000000
vt 0.125000 0.250000
vn 0.999974 0.000000 -0.007162
vn 0.999974 0.000000 -0.007162
vn 0.999974 0.000000 -0.007162
vn 0.999974 0.000000 -0.007162
vn 0.000000 1.000000 -0.000000
vn 0.000000 1.000000 -0.000000
vn 0.000000 1.000000 -0.000000
vn 0.000000 1.000000 -0.000000
vn -0.999974 0.000000 0.007162
vn -0.999974 0.000000 0.007162
vn -0.999974 0.000000 0.007162
vn -0.999974 0.000000 0.007162
vn 0.000000 -1.000000 0.000000
vn 0.000000 -1.000000 0.000000
vn 0.000000 -1.000000 0.000000
vn 0.000000 -1.000000 0.000000
vn -0.003096 0.000000 -0.999995
vn -0.003096 0.000000 -0.999995
vn -0.003096 0.000000 -0.999995
vn -0.003096 0.000000 -0.999995
vn 0.003096 0.000000 0.999995
vn 0.003096 0.000000 0.999995
vn 0.003096 0.000000 0.999995
vn 0.003096 0.000000 0.999995
s off
g pCube15 polySurface18
usemtl lambert4SG
f 9/15/25 10/16/26 12/17/27 11/18/28
f 11/18/29 12/17/30 14/19/31 13/20/32
f 13/20/33 14/19/34 16/21/35 15/22/36
f 15/22/37 16/21/38 10/23/39 9/24/40
f 10/16/41 16/25/42 14/26/43 12/17/44
f 15/27/45 9/15/46 11/18/47 13/28/48
g default
v -64.010308 3.831244 15.131534
v -64.114392 12.103317 15.056943
v -64.010308 3.841673 16.288026
v -64.114392 12.113745 16.213435
v -64.107403 3.841501 16.288028
v -64.211487 12.113574 16.213436
v -64.107403 3.831073 15.131536
v -64.211487 12.103146 15.056944
vt 0.375000 0.000000
vt 0.625000 0.000000
vt 0.625000 0.250000
vt 0.375000 0.250000
vt 0.625000 0.500000
vt 0.375000 0.500000
vt 0.625000 0.750000
vt 0.375000 0.750000
vt 0.625000 1.000000
vt 0.375000 1.000000
vt 0.875000 0.000000
vt 0.875000 0.250000
vt 0.125000 0.000000
vt 0.125000 0.250000
vn 0.999921 0.012581 -0.000113
vn 0.999921 0.012581 -0.000113
vn 0.999921 0.012581 -0.000113
vn 0.999921 0.012581 -0.000113
vn 0.000000 0.009017 0.999959
vn 0.000000 0.009017 0.999959
vn 0.000000 0.009017 0.999959
vn 0.000000 0.009017 0.999959
vn -0.999921 -0.012581 0.000113
vn -0.999921 -0.012581 0.000113
vn -0.999921 -0.012581 0.000113
vn -0.999921 -0.012581 0.000113
vn 0.000000 -0.009017 -0.999959
vn 0.000000 -0.009017 -0.999959
vn 0.000000 -0.009017 -0.999959
vn 0.000000 -0.009017 -0.999959
vn -0.001762 0.999958 -0.009017
vn -0.001762 0.999958 -0.009017
vn -0.001762 0.999958 -0.009017
vn -0.001762 0.999958 -0.009017
vn 0.001762 -0.999958 0.009017
vn 0.001762 -0.999958 0.009017
vn 0.001762 -0.999958 0.009017
vn 0.001762 -0.999958 0.009017
s off
g pCube15 polySurface20
usemtl lambert4SG
f 17/29/49 18/30/50 20/31/51 19/32/52
f 19/32/53 20/31/54 22/33/55 21/34/56
f 21/34/57 22/33/58 24/35/59 23/36/60
f 23/36/61 24/35/62 18/37/63 17/38/64
f 18/30/65 24/39/66 22/40/67 20/31/68
f 23/41/69 17/29/70 19/32/71 21/42/72
g default
v -64.010308 0.090525 16.304246
v -64.114392 0.090525 1.771390
v -64.010308 4.876983 16.304246
v -64.114392 4.876983 1.771390
v -64.107403 4.876983 16.304547
v -64.211487 4.876983 1.771691
v -64.107403 0.090525 16.304547
v -64.211487 0.090525 1.771691
vt 0.375000 0.000000
vt 0.625000 0.000000
vt 0.625000 0.250000
vt 0.375000 0.250000
vt 0.625000 0.500000
vt 0.375000 0.500000
vt 0.625000 0.750000
vt 0.375000 0.750000
vt 0.625000 1.000000
vt 0.375000 1.000000
vt 0.875000 0.000000
vt 0.875000 0.250000
vt 0.125000 0.000000
vt 0.125000 0.250000
vn 0.999974 0.000000 -0.007162
vn 0.999974 0.000000 -0.007162
vn 0.999974 0.000000 -0.007162
vn 0.999974 0.000000 -0.007162
vn 0.000000 1.000000 -0.000000
vn 0.000000 1.000000 -0.000000
vn 0.000000 1.000000 -0.000000
vn 0.000000 1.000000 -0.000000
vn -0.999974 0.000000 0.007162
vn -0.999974 0.000000 0.007162
vn -0.999974 0.000000 0.007162
vn -0.999974 0.000000 0.007162
vn 0.000000 -1.000000 0.000000
vn 0.000000 -1.000000 0.000000
vn 0.000000 -1.000000 0.000000
vn 0.000000 -1.000000 0.000000
vn -0.003096 0.000000 -0.999995
vn -0.003096 0.000000 -0.999995
vn -0.003096 0.000000 -0.999995
vn -0.003096 0.000000 -0.999995
vn 0.003096 0.000000 0.999995
vn 0.003096 0.000000 0.999995
vn 0.003096 0.000000 0.999995
vn 0.003096 0.000000 0.999995
s off
g pCube15 polySurface17
usemtl lambert4SG
f 25/43/73 26/44/74 28/45/75 27/46/76
f 27/46/77 28/45/78 30/47/79 29/48/80
f 29/48/81 30/47/82 32/49/83 31/50/84
f 31/50/85 32/49/86 26/51/87 25/52/88
f 26/44/89 32/53/90 30/54/91 28/45/92
f 31/55/93 25/43/94 27/46/95 29/56/96
