# This file uses centimeters as units for non-parametric coordinates.

mtllib pared1.mtl
g default
v -6.120105 0.048566 11.369913
v -5.972350 0.048566 11.369913
v -6.120105 10.294581 11.369913
v -5.972350 10.294581 11.369913
v -6.120105 10.294581 -11.369913
v -5.972350 10.294581 -11.369913
v -6.120105 0.048566 -11.369913
v -5.972350 0.048566 -11.369913
v -6.120105 10.294581 -6.811282
v -5.972350 10.294581 -6.811282
v -5.972350 0.048566 -6.811282
v -6.120105 0.048566 -6.811282
v -6.120105 10.294581 -0.378867
v -5.972350 10.294581 -0.378867
v -5.972350 0.048566 -0.378867
v -6.120105 0.048566 -0.378867
v -6.120105 6.808764 11.369913
v -5.972345 6.808764 11.369913
v -5.972345 6.808764 -0.378867
v -5.972350 6.808764 -6.811282
v -5.972350 6.808764 -11.369913
v -6.120105 6.808764 -11.369913
v -6.120105 6.808764 -6.811282
v -6.120105 6.808764 -0.378867
v -6.418097 6.808764 -0.378867
v -6.418097 6.808764 -6.811282
v -6.418097 0.048566 -0.378867
v -6.418097 0.048566 -6.811282
v -6.120105 10.294581 8.992360
v -5.972350 10.294581 8.992360
v -5.972345 6.808764 8.992360
v -5.972350 0.048566 8.992360
v -6.120105 0.048566 8.992360
v -6.120105 6.808764 8.992360
v -5.972350 0.048566 2.197283
v -5.972345 6.808764 2.197284
v -5.972350 10.294581 2.197284
v -6.120105 10.294581 2.197284
v -6.120105 6.808764 2.197283
v -6.120105 0.048566 2.197283
v -6.120105 2.631969 -0.378867
v -6.120105 2.631969 2.197283
v -6.120105 2.631969 8.992360
v -6.120105 2.631969 11.369913
v -5.972348 2.631969 11.369913
v -5.972348 2.631969 8.992360
v -5.972348 2.631969 2.197283
v -5.972348 2.631969 -0.378867
v -6.418097 2.631969 -0.378867
vt 0.375000 0.000000
vt 0.625000 0.000000
vt 0.375000 0.250000
vt 0.625000 0.250000
vt 0.375000 0.500000
vt 0.625000 0.500000
vt 0.375000 0.750000
vt 0.625000 0.750000
vt 0.375000 1.000000
vt 0.625000 1.000000
vt 0.000000 0.000000
vt 1.000000 0.000000
vt 1.000000 0.000000
vt 0.000000 0.000000
vt 1.000000 1.000000
vt 0.000000 1.000000
vt 0.000000 1.000000
vt 1.000000 1.000000
vt 0.799531 1.000000
vt 0.375000 0.449883
vt 0.625000 0.449883
vt 0.799531 1.000000
vt 0.625000 0.800117
vt 0.799531 0.000000
vt 0.799531 0.000000
vt 0.375000 0.800117
vt 0.516661 1.000000
vt 0.375000 0.379165
vt 0.625000 0.379165
vt 0.516661 1.000000
vt 0.625000 0.870835
vt 0.516661 0.000000
vt 0.516661 0.000000
vt 0.375000 0.870835
vt 0.000000 0.659788
vt 0.375000 0.164947
vt 0.625000 0.164947
vt 0.000000 0.659788
vt 0.516661 0.659788
vt 0.799531 0.659788
vt 0.625000 0.585053
vt 1.000000 0.659788
vt 1.000000 0.659788
vt 0.375000 0.585053
vt 0.799531 0.659788
vt 0.516661 0.659788
vt 0.799531 0.659788
vt 0.516661 0.659788
vt 0.516661 0.000000
vt 0.799531 0.000000
vt 0.104555 1.000000
vt 0.375000 0.276139
vt 0.625000 0.276139
vt 0.104555 1.000000
vt 0.104555 0.659788
vt 0.625000 0.973861
vt 0.104555 0.000000
vt 0.104555 0.000000
vt 0.375000 0.973861
vt 0.104555 0.659788
vt 0.625000 0.899157
vt 0.403373 0.000000
vt 0.403373 0.659788
vt 0.625000 0.350843
vt 0.403373 1.000000
vt 0.403373 1.000000
vt 0.375000 0.350843
vt 0.403373 0.659788
vt 0.403373 0.000000
vt 0.375000 0.899157
vt 0.516661 0.252137
vt 0.403373 0.252137
vt 0.104555 0.252137
vt 0.000000 0.252137
vt 0.375000 0.063034
vt 0.625000 0.063034
vt 0.000000 0.252137
vt 0.104555 0.252137
vt 0.403373 0.252137
vt 0.516661 0.252137
vt 0.516661 0.252137
vn 0.000000 0.000000 1.000000
vn 0.000000 0.000000 1.000000
vn 0.000000 0.000000 1.000000
vn 0.000000 0.000000 1.000000
vn 0.000000 1.000000 0.000000
vn 0.000000 1.000000 0.000000
vn 0.000000 1.000000 0.000000
vn 0.000000 1.000000 0.000000
vn 0.000000 0.000000 -1.000000
vn 0.000000 0.000000 -1.000000
vn 0.000000 0.000000 -1.000000
vn 0.000000 0.000000 -1.000000
vn 0.000000 -1.000000 0.000000
vn 0.000000 -1.000000 0.000000
vn 0.000000 -1.000000 0.000000
vn 0.000000 -1.000000 0.000000
vn 1.000000 0.000000 -0.000000
vn 1.000000 0.000000 -0.000000
vn 1.000000 0.000000 0.000000
vn 1.000000 0.000000 0.000000
vn -1.000000 0.000000 0.000000
vn -1.000000 0.000000 0.000000
vn -1.000000 0.000000 0.000000
vn -1.000000 0.000000 0.000000
vn 0.000000 1.000000 0.000000
vn 0.000000 1.000000 0.000000
vn 1.000000 0.000001 -0.000000
vn 1.000000 0.000001 -0.000000
vn 0.000000 -1.000000 0.000000
vn 0.000000 -1.000000 0.000000
vn -1.000000 0.000000 0.000000
vn -1.000000 0.000000 0.000000
vn 0.000000 1.000000 0.000000
vn 0.000000 1.000000 0.000000
vn 0.000000 1.000000 0.000000
vn 0.000000 1.000000 0.000000
vn 1.000000 0.000002 0.000000
vn 1.000000 0.000001 -0.000000
vn 1.000000 0.000001 -0.000000
vn 1.000000 0.000002 0.000000
vn 0.000000 -1.000000 0.000000
vn 0.000000 -1.000000 0.000000
vn 0.000000 -1.000000 0.000000
vn 0.000000 -1.000000 0.000000
vn -1.000000 0.000000 0.000000
vn -1.000000 0.000000 0.000000
vn -1.000000 0.000000 0.000000
vn -1.000000 0.000000 0.000000
vn 0.000000 0.000000 1.000000
vn 0.000000 0.000000 1.000000
vn 1.000000 0.000000 0.000000
vn 1.000000 0.000000 0.000000
vn 0.000000 0.000000 -1.000000
vn 0.000000 0.000000 -1.000000
vn -1.000000 0.000000 0.000000
vn -1.000000 0.000000 0.000000
vn 0.000000 -1.000000 0.000000
vn 0.000000 -1.000000 0.000000
vn 0.000000 -1.000000 0.000000
vn 0.000000 -1.000000 0.000000
vn 0.000000 0.000000 -1.000000
vn 0.000000 0.000000 -1.000000
vn 0.000000 0.000000 -1.000000
vn 0.000000 0.000000 -1.000000
vn 0.000000 1.000000 0.000000
vn 0.000000 1.000000 0.000000
vn 0.000000 1.000000 0.000000
vn 0.000000 1.000000 0.000000
vn 0.000000 0.000000 1.000000
vn 0.000000 0.000000 1.000000
vn 0.000000 0.000000 1.000000
vn 0.000000 0.000000 1.000000
vn 0.000000 1.000000 0.000000
vn 0.000000 1.000000 0.000000
vn 1.000000 0.000000 -0.000000
vn 1.000000 0.000002 0.000000
vn 1.000000 -0.000001 -0.000000
vn 1.000000 -0.000001 -0.000000
vn 0.000000 -1.000000 0.000000
vn 0.000000 -1.000000 0.000000
vn -1.000000 0.000000 0.000000
vn -1.000000 0.000000 0.000000
vn -1.000000 0.000000 0.000000
vn -1.000000 0.000000 0.000000
vn 1.000000 -0.000001 -0.000000
vn 1.000000 -0.000001 -0.000000
vn -1.000000 0.000000 0.000000
vn -1.000000 0.000000 0.000000
vn -1.000000 0.000000 0.000000
vn -1.000000 0.000000 0.000000
vn -1.000000 0.000000 0.000000
vn -1.000000 0.000000 0.000000
vn 0.000000 0.000000 1.000000
vn 0.000000 0.000000 1.000000
vn 1.000000 -0.000001 -0.000000
vn 1.000000 -0.000001 0.000000
vn 1.000000 -0.000001 -0.000000
vn 1.000000 -0.000001 -0.000000
vn 0.000000 0.000000 -1.000000
vn 0.000000 0.000000 -1.000000
s 1
g pCube2
usemtl lambert3SG
f 17/36/1 18/37/2 4/4/3 3/3/4
s 2
f 9/20/5 10/21/6 6/6/7 5/5/8
s 3
f 5/5/9 6/6/10 21/41/11 22/44/12
s 4
f 7/7/13 8/8/14 11/23/15 12/26/16
s 5
f 10/22/17 20/40/18 21/42/19 6/15/20
s 6
f 22/43/21 23/45/22 9/19/23 5/18/24
s 2
f 13/28/25 14/29/26 10/21/6 9/20/5
s 5
f 14/30/27 19/39/28 20/40/18 10/22/17
s 4
f 12/26/16 11/23/15 15/31/29 16/34/30
s 6
f 9/19/23 23/45/22 24/46/31 13/27/32
s 2
f 29/52/33 30/53/34 37/64/35 38/67/36
s 5
f 30/54/37 31/55/38 36/63/39 37/65/40
s 4
f 40/70/41 35/61/42 32/56/43 33/59/44
s 6
f 38/66/45 39/68/46 34/60/47 29/51/48
s 1
f 44/75/49 45/76/50 18/37/2 17/36/1
s 5
f 21/42/19 20/40/18 11/24/51 8/12/52
s 3
f 22/44/12 21/41/11 8/8/53 7/7/54
s 6
f 7/13/55 12/25/56 23/45/22 22/43/21
s off
f 20/40/57 19/39/58 25/48/59 26/47/60
s 9
f 19/39/61 48/80/62 49/81/63 25/48/64
s off
f 15/32/65 11/24/66 28/50/67 27/49/68
f 11/24/69 20/40/70 26/47/71 28/50/72
s 2
f 3/3/73 4/4/74 30/53/34 29/52/33
s 5
f 18/38/75 31/55/38 30/54/37 4/16/76
f 45/77/77 46/78/78 31/55/38 18/38/75
s 4
f 33/59/44 32/56/43 2/10/79 1/9/80
s 6
f 17/35/81 34/60/47 43/73/82 44/74/83
f 29/51/48 34/60/47 17/35/81 3/17/84
s 5
f 36/63/39 47/79/85 48/80/86 19/39/28
f 37/65/40 36/63/39 19/39/28 14/30/27
s 2
f 38/67/36 37/64/35 14/29/26 13/28/25
s 6
f 13/27/32 24/46/31 39/68/46 38/66/45
f 41/71/87 42/72/88 39/68/46 24/46/31
s 4
f 16/34/30 15/31/29 35/61/42 40/70/41
s 6
f 40/69/89 42/72/88 41/71/87 16/33/90
f 33/58/91 43/73/82 42/72/88 40/69/89
f 44/74/83 43/73/82 33/58/91 1/14/92
s 1
f 1/1/93 2/2/94 45/76/50 44/75/49
s 5
f 2/11/95 32/57/96 46/78/78 45/77/77
f 47/79/85 46/78/78 32/57/96 35/62/97
f 48/80/86 47/79/85 35/62/97 15/32/98
s 9
f 49/81/63 48/80/62 15/32/99 27/49/100
