# This file uses centimeters as units for non-parametric coordinates.

mtllib libroA.mtl
g default
v 1.009092 -0.035280 0.692524
v 1.009092 -0.041743 -0.721830
v -0.009421 -0.041743 -0.721830
v -0.009421 -0.035279 0.692524
vt 0.000000 0.000000
vt 1.000000 0.000000
vt 1.000000 1.000000
vt 0.000000 1.000000
vn 0.000000 0.999990 -0.004570
vn 0.000000 0.999990 -0.004570
vn 0.000000 0.999990 -0.004570
vn 0.000000 0.999990 -0.004570
s off
g polySurface10 polySurface8 libro_pCube11
usemtl libro_lambert2SG
f 4/1/1 1/2/2 2/3/3 3/4/4
