# This file uses centimeters as units for non-parametric coordinates.

mtllib libroB.mtl
g default
v 0.048544 -0.039424 0.669916
v 0.838429 -0.039424 0.669916
v 0.048544 -0.045628 -0.687550
v 0.838429 -0.045628 -0.687550
v 0.048544 -0.071082 -0.687434
v 0.838429 -0.071082 -0.687434
v 0.048544 -0.064878 0.670032
v 0.838429 -0.064878 0.670032
v 0.041064 -0.077538 0.670090
v 0.829506 -0.077538 0.670090
v 0.041064 -0.083743 -0.687376
v 0.829506 -0.083743 -0.687376
v 0.041064 -0.109196 -0.687260
v 0.829506 -0.109196 -0.687260
v 0.041064 -0.102992 0.670206
v 0.829506 -0.102992 0.670206
v 0.047728 -0.119012 0.670279
v 0.846579 -0.119012 0.670279
v 0.047728 -0.125216 -0.687187
v 0.846579 -0.125216 -0.687187
v 0.047728 -0.150670 -0.687071
v 0.846579 -0.150670 -0.687071
v 0.047728 -0.144466 0.670396
v 0.846579 -0.144466 0.670396
v 0.039957 -0.158572 0.670460
v 0.846304 -0.158572 0.670460
v 0.039957 -0.164776 -0.687006
v 0.846304 -0.164776 -0.687006
v 0.039957 -0.190230 -0.686889
v 0.846304 -0.190230 -0.686889
v 0.039957 -0.184025 0.670577
v 0.846304 -0.184025 0.670577
v 0.034064 -0.197597 0.670639
v 0.851832 -0.197597 0.670639
v 0.034064 -0.203801 -0.686828
v 0.851832 -0.203801 -0.686828
v 0.034064 -0.229255 -0.686712
v 0.851832 -0.229255 -0.686712
v 0.034064 -0.223051 0.670755
v 0.851832 -0.223051 0.670755
v 0.032508 -0.240075 0.670833
v 0.844575 -0.240075 0.670833
v 0.032508 -0.246279 -0.686634
v 0.844575 -0.246279 -0.686634
v 0.032508 -0.271733 -0.686517
v 0.844575 -0.271733 -0.686517
v 0.032508 -0.265528 0.670949
v 0.844575 -0.265528 0.670949
v 0.030549 -0.282705 0.671028
v 0.846445 -0.282705 0.671028
v 0.030549 -0.288910 -0.686439
v 0.846445 -0.288910 -0.686439
v 0.030549 -0.314363 -0.686322
v 0.846445 -0.314363 -0.686322
v 0.030549 -0.308159 0.671144
v 0.846445 -0.308159 0.671144
v 0.026689 -0.325191 0.671222
v 0.849535 -0.325191 0.671222
v 0.026689 -0.331395 -0.686244
v 0.849535 -0.331395 -0.686244
v 0.026689 -0.356847 -0.686128
v 0.849535 -0.356847 -0.686128
v 0.026689 -0.350643 0.671338
v 0.849535 -0.350643 0.671338
v -0.010878 -0.033857 0.698334
v -0.010878 -0.040320 -0.716019
v -0.010878 -0.397759 -0.714386
v 1.007635 -0.397759 -0.714386
v -0.010878 -0.391295 0.699969
v 1.007635 -0.391295 0.699969
v -0.010878 -0.222427 0.699197
v -0.010878 -0.223002 -0.715185
vt 0.375000 0.000000
vt 0.625000 0.000000
vt 0.625000 0.250000
vt 0.375000 0.250000
vt 0.625000 0.500000
vt 0.375000 0.500000
vt 0.625000 0.750000
vt 0.375000 0.750000
vt 0.625000 1.000000
vt 0.375000 1.000000
vt 0.875000 0.000000
vt 0.875000 0.250000
vt 0.125000 0.000000
vt 0.125000 0.250000
vt 0.375000 0.000000
vt 0.625000 0.000000
vt 0.625000 0.250000
vt 0.375000 0.250000
vt 0.625000 0.500000
vt 0.375000 0.500000
vt 0.625000 0.750000
vt 0.375000 0.750000
vt 0.625000 1.000000
vt 0.375000 1.000000
vt 0.875000 0.000000
vt 0.875000 0.250000
vt 0.125000 0.000000
vt 0.125000 0.250000
vt 0.375000 0.000000
vt 0.625000 0.000000
vt 0.625000 0.250000
vt 0.375000 0.250000
vt 0.625000 0.500000
vt 0.375000 0.500000
vt 0.625000 0.750000
vt 0.375000 0.750000
vt 0.625000 1.000000
vt 0.375000 1.000000
vt 0.875000 0.000000
vt 0.875000 0.250000
vt 0.125000 0.000000
vt 0.125000 0.250000
vt 0.375000 0.000000
vt 0.625000 0.000000
vt 0.625000 0.250000
vt 0.375000 0.250000
vt 0.625000 0.500000
vt 0.375000 0.500000
vt 0.625000 0.750000
vt 0.375000 0.750000
vt 0.625000 1.000000
vt 0.375000 1.000000
vt 0.875000 0.000000
vt 0.875000 0.250000
vt 0.125000 0.000000
vt 0.125000 0.250000
vt 0.375000 0.000000
vt 0.625000 0.000000
vt 0.625000 0.250000
vt 0.375000 0.250000
vt 0.625000 0.500000
vt 0.375000 0.500000
vt 0.625000 0.750000
vt 0.375000 0.750000
vt 0.625000 1.000000
vt 0.375000 1.000000
vt 0.875000 0.000000
vt 0.875000 0.250000
vt 0.125000 0.000000
vt 0.125000 0.250000
vt 0.375000 0.000000
vt 0.625000 0.000000
vt 0.625000 0.250000
vt 0.375000 0.250000
vt 0.625000 0.500000
vt 0.375000 0.500000
vt 0.625000 0.750000
vt 0.375000 0.750000
vt 0.625000 1.000000
vt 0.375000 1.000000
vt 0.875000 0.000000
vt 0.875000 0.250000
vt 0.125000 0.000000
vt 0.125000 0.250000
vt 0.375000 0.000000
vt 0.625000 0.000000
vt 0.625000 0.250000
vt 0.375000 0.250000
vt 0.625000 0.500000
vt 0.375000 0.500000
vt 0.625000 0.750000
vt 0.375000 0.750000
vt 0.625000 1.000000
vt 0.375000 1.000000
vt 0.875000 0.000000
vt 0.875000 0.250000
vt 0.125000 0.000000
vt 0.125000 0.250000
vt 0.375000 0.000000
vt 0.625000 0.000000
vt 0.625000 0.250000
vt 0.375000 0.250000
vt 0.625000 0.500000
vt 0.375000 0.500000
vt 0.625000 0.750000
vt 0.375000 0.750000
vt 0.625000 1.000000
vt 0.375000 1.000000
vt 0.875000 0.000000
vt 0.875000 0.250000
vt 0.125000 0.000000
vt 0.125000 0.250000
vt 0.002811 0.799819
vt 0.205253 0.801887
vt 0.196982 0.998126
vt 0.006946 0.996058
vt 0.003005 0.000000
vt 0.099623 0.000000
vt 0.097800 0.200375
vt -0.003199 0.200375
vt 0.207515 0.000000
vt 0.203379 0.200375
vn 0.000000 0.999990 -0.004570
vn 0.000000 0.999990 -0.004570
vn 0.000000 0.999990 -0.004570
vn 0.000000 0.999990 -0.004570
vn 0.000000 -0.004570 -0.999990
vn 0.000000 -0.004570 -0.999990
vn 0.000000 -0.004570 -0.999990
vn 0.000000 -0.004570 -0.999990
vn 0.000000 -0.999990 0.004570
vn 0.000000 -0.999990 0.004570
vn 0.000000 -0.999990 0.004570
vn 0.000000 -0.999990 0.004570
vn 0.000000 0.004570 0.999990
vn 0.000000 0.004570 0.999990
vn 0.000000 0.004570 0.999990
vn 0.000000 0.004570 0.999990
vn 1.000000 0.000000 0.000000
vn 1.000000 0.000000 0.000000
vn 1.000000 0.000000 0.000000
vn 1.000000 0.000000 0.000000
vn -1.000000 0.000000 0.000000
vn -1.000000 0.000000 0.000000
vn -1.000000 0.000000 0.000000
vn -1.000000 0.000000 0.000000
vn 0.000000 0.999990 -0.004570
vn 0.000000 0.999990 -0.004570
vn 0.000000 0.999990 -0.004570
vn 0.000000 0.999990 -0.004570
vn 0.000000 -0.004570 -0.999990
vn 0.000000 -0.004570 -0.999990
vn 0.000000 -0.004570 -0.999990
vn 0.000000 -0.004570 -0.999990
vn 0.000000 -0.999990 0.004570
vn 0.000000 -0.999990 0.004570
vn 0.000000 -0.999990 0.004570
vn 0.000000 -0.999990 0.004570
vn 0.000000 0.004570 0.999990
vn 0.000000 0.004570 0.999990
vn 0.000000 0.004570 0.999990
vn 0.000000 0.004570 0.999990
vn 1.000000 0.000000 0.000000
vn 1.000000 0.000000 0.000000
vn 1.000000 0.000000 0.000000
vn 1.000000 0.000000 0.000000
vn -1.000000 0.000000 0.000000
vn -1.000000 0.000000 0.000000
vn -1.000000 0.000000 0.000000
vn -1.000000 0.000000 0.000000
vn 0.000000 0.999990 -0.004570
vn 0.000000 0.999990 -0.004570
vn 0.000000 0.999990 -0.004570
vn 0.000000 0.999990 -0.004570
vn 0.000000 -0.004570 -0.999990
vn 0.000000 -0.004570 -0.999990
vn 0.000000 -0.004570 -0.999990
vn 0.000000 -0.004570 -0.999990
vn 0.000000 -0.999990 0.004570
vn 0.000000 -0.999990 0.004570
vn 0.000000 -0.999990 0.004570
vn 0.000000 -0.999990 0.004570
vn 0.000000 0.004570 0.999990
vn 0.000000 0.004570 0.999990
vn 0.000000 0.004570 0.999990
vn 0.000000 0.004570 0.999990
vn 1.000000 0.000000 0.000000
vn 1.000000 0.000000 0.000000
vn 1.000000 0.000000 0.000000
vn 1.000000 0.000000 0.000000
vn -1.000000 0.000000 0.000000
vn -1.000000 0.000000 0.000000
vn -1.000000 0.000000 0.000000
vn -1.000000 0.000000 0.000000
vn 0.000000 0.999990 -0.004570
vn 0.000000 0.999990 -0.004570
vn 0.000000 0.999990 -0.004570
vn 0.000000 0.999990 -0.004570
vn 0.000000 -0.004570 -0.999990
vn 0.000000 -0.004570 -0.999990
vn 0.000000 -0.004570 -0.999990
vn 0.000000 -0.004570 -0.999990
vn 0.000000 -0.999990 0.004570
vn 0.000000 -0.999990 0.004570
vn 0.000000 -0.999990 0.004570
vn 0.000000 -0.999990 0.004570
vn 0.000000 0.004570 0.999990
vn 0.000000 0.004570 0.999990
vn 0.000000 0.004570 0.999990
vn 0.000000 0.004570 0.999990
vn 1.000000 0.000000 0.000000
vn 1.000000 0.000000 0.000000
vn 1.000000 0.000000 0.000000
vn 1.000000 0.000000 0.000000
vn -1.000000 0.000000 0.000000
vn -1.000000 0.000000 0.000000
vn -1.000000 0.000000 0.000000
vn -1.000000 0.000000 0.000000
vn 0.000000 0.999990 -0.004570
vn 0.000000 0.999990 -0.004570
vn 0.000000 0.999990 -0.004570
vn 0.000000 0.999990 -0.004570
vn 0.000000 -0.004570 -0.999990
vn 0.000000 -0.004570 -0.999990
vn 0.000000 -0.004570 -0.999990
vn 0.000000 -0.004570 -0.999990
vn 0.000000 -0.999990 0.004570
vn 0.000000 -0.999990 0.004570
vn 0.000000 -0.999990 0.004570
vn 0.000000 -0.999990 0.004570
vn 0.000000 0.004570 0.999990
vn 0.000000 0.004570 0.999990
vn 0.000000 0.004570 0.999990
vn 0.000000 0.004570 0.999990
vn 1.000000 0.000000 0.000000
vn 1.000000 0.000000 0.000000
vn 1.000000 0.000000 0.000000
vn 1.000000 0.000000 0.000000
vn -1.000000 0.000000 0.000000
vn -1.000000 0.000000 0.000000
vn -1.000000 0.000000 0.000000
vn -1.000000 0.000000 0.000000
vn 0.000000 0.999990 -0.004570
vn 0.000000 0.999990 -0.004570
vn 0.000000 0.999990 -0.004570
vn 0.000000 0.999990 -0.004570
vn 0.000000 -0.004570 -0.999990
vn 0.000000 -0.004570 -0.999990
vn 0.000000 -0.004570 -0.999990
vn 0.000000 -0.004570 -0.999990
vn 0.000000 -0.999990 0.004570
vn 0.000000 -0.999990 0.004570
vn 0.000000 -0.999990 0.004570
vn 0.000000 -0.999990 0.004570
vn 0.000000 0.004570 0.999990
vn 0.000000 0.004570 0.999990
vn 0.000000 0.004570 0.999990
vn 0.000000 0.004570 0.999990
vn 1.000000 0.000000 0.000000
vn 1.000000 0.000000 0.000000
vn 1.000000 0.000000 0.000000
vn 1.000000 0.000000 0.000000
vn -1.000000 0.000000 0.000000
vn -1.000000 0.000000 0.000000
vn -1.000000 0.000000 0.000000
vn -1.000000 0.000000 0.000000
vn 0.000000 0.999990 -0.004570
vn 0.000000 0.999990 -0.004570
vn 0.000000 0.999990 -0.004570
vn 0.000000 0.999990 -0.004570
vn 0.000000 -0.004570 -0.999990
vn 0.000000 -0.004570 -0.999990
vn 0.000000 -0.004570 -0.999990
vn 0.000000 -0.004570 -0.999990
vn 0.000000 -0.999990 0.004570
vn 0.000000 -0.999990 0.004570
vn 0.000000 -0.999990 0.004570
vn 0.000000 -0.999990 0.004570
vn 0.000000 0.004570 0.999990
vn 0.000000 0.004570 0.999990
vn 0.000000 0.004570 0.999990
vn 0.000000 0.004570 0.999990
vn 1.000000 0.000000 0.000000
vn 1.000000 0.000000 0.000000
vn 1.000000 0.000000 0.000000
vn 1.000000 0.000000 0.000000
vn -1.000000 0.000000 0.000000
vn -1.000000 0.000000 0.000000
vn -1.000000 0.000000 0.000000
vn -1.000000 0.000000 0.000000
vn 0.000000 0.999990 -0.004570
vn 0.000000 0.999990 -0.004570
vn 0.000000 0.999990 -0.004570
vn 0.000000 0.999990 -0.004570
vn 0.000000 -0.004570 -0.999990
vn 0.000000 -0.004570 -0.999990
vn 0.000000 -0.004570 -0.999990
vn 0.000000 -0.004570 -0.999990
vn 0.000000 -0.999990 0.004570
vn 0.000000 -0.999990 0.004570
vn 0.000000 -0.999990 0.004570
vn 0.000000 -0.999990 0.004570
vn 0.000000 0.004570 0.999990
vn 0.000000 0.004570 0.999990
vn 0.000000 0.004570 0.999990
vn 0.000000 0.004570 0.999990
vn 1.000000 0.000000 0.000000
vn 1.000000 0.000000 0.000000
vn 1.000000 0.000000 0.000000
vn 1.000000 0.000000 0.000000
vn -1.000000 0.000000 0.000000
vn -1.000000 0.000000 0.000000
vn -1.000000 0.000000 0.000000
vn -1.000000 0.000000 0.000000
vn 0.000000 -0.999990 0.004570
vn 0.000000 -0.999990 0.004570
vn 0.000000 -0.999990 0.004570
vn 0.000000 -0.999990 0.004570
vn -1.000000 0.000000 0.000000
vn -1.000000 0.000000 0.000000
vn -1.000000 0.000000 0.000000
vn -1.000000 0.000000 0.000000
vn -1.000000 0.000000 0.000000
vn -1.000000 0.000000 0.000000
s off
g polySurface9
usemtl libro_lambert3SG
f 1/1/1 2/2/2 4/3/3 3/4/4
f 3/4/5 4/3/6 6/5/7 5/6/8
f 5/6/9 6/5/10 8/7/11 7/8/12
f 7/8/13 8/7/14 2/9/15 1/10/16
f 2/2/17 8/11/18 6/12/19 4/3/20
f 7/13/21 1/1/22 3/4/23 5/14/24
f 9/15/25 10/16/26 12/17/27 11/18/28
f 11/18/29 12/17/30 14/19/31 13/20/32
f 13/20/33 14/19/34 16/21/35 15/22/36
f 15/22/37 16/21/38 10/23/39 9/24/40
f 10/16/41 16/25/42 14/26/43 12/17/44
f 15/27/45 9/15/46 11/18/47 13/28/48
f 17/29/49 18/30/50 20/31/51 19/32/52
f 19/32/53 20/31/54 22/33/55 21/34/56
f 21/34/57 22/33/58 24/35/59 23/36/60
f 23/36/61 24/35/62 18/37/63 17/38/64
f 18/30/65 24/39/66 22/40/67 20/31/68
f 23/41/69 17/29/70 19/32/71 21/42/72
f 25/43/73 26/44/74 28/45/75 27/46/76
f 27/46/77 28/45/78 30/47/79 29/48/80
f 29/48/81 30/47/82 32/49/83 31/50/84
f 31/50/85 32/49/86 26/51/87 25/52/88
f 26/44/89 32/53/90 30/54/91 28/45/92
f 31/55/93 25/43/94 27/46/95 29/56/96
f 33/57/97 34/58/98 36/59/99 35/60/100
f 35/60/101 36/59/102 38/61/103 37/62/104
f 37/62/105 38/61/106 40/63/107 39/64/108
f 39/64/109 40/63/110 34/65/111 33/66/112
f 34/58/113 40/67/114 38/68/115 36/59/116
f 39/69/117 33/57/118 35/60/119 37/70/120
f 41/71/121 42/72/122 44/73/123 43/74/124
f 43/74/125 44/73/126 46/75/127 45/76/128
f 45/76/129 46/75/130 48/77/131 47/78/132
f 47/78/133 48/77/134 42/79/135 41/80/136
f 42/72/137 48/81/138 46/82/139 44/73/140
f 47/83/141 41/71/142 43/74/143 45/84/144
f 49/85/145 50/86/146 52/87/147 51/88/148
f 51/88/149 52/87/150 54/89/151 53/90/152
f 53/90/153 54/89/154 56/91/155 55/92/156
f 55/92/157 56/91/158 50/93/159 49/94/160
f 50/86/161 56/95/162 54/96/163 52/87/164
f 55/97/165 49/85/166 51/88/167 53/98/168
f 57/99/169 58/100/170 60/101/171 59/102/172
f 59/102/173 60/101/174 62/103/175 61/104/176
f 61/104/177 62/103/178 64/105/179 63/106/180
f 63/106/181 64/105/182 58/107/183 57/108/184
f 58/100/185 64/109/186 62/110/187 60/101/188
f 63/111/189 57/99/190 59/102/191 61/112/192
usemtl libro_lambert2SG
f 67/113/193 68/114/194 70/115/195 69/116/196
s 1
f 69/117/197 71/118/198 72/119/199 67/120/200
f 72/119/199 71/118/198 65/121/201 66/122/202
