# This file uses centimeters as units for non-parametric coordinates.

mtllib sillon.mtl
g default
v -1.172730 0.178082 -2.950826
v 1.153092 0.178082 -2.950826
v -1.172730 1.838140 -3.166512
v 1.153092 1.838140 -3.166512
v -1.172730 1.819121 -3.312899
v 1.153092 1.819121 -3.312899
v -1.172730 0.159062 -3.097213
v 1.153092 0.159062 -3.097213
vt 0.000000 1.000000
vt 0.000000 0.000000
vt 1.000000 0.000000
vt 1.000000 1.000000
vt 0.000000 1.000000
vt 0.000000 0.000000
vt 1.000000 0.000000
vt 1.000000 1.000000
vt 0.000000 0.000000
vt 0.000000 1.000000
vt 1.000000 1.000000
vt 1.000000 0.000000
vt 0.375000 1.000000
vt 0.375000 0.750000
vt 0.625000 0.750000
vt 0.625000 1.000000
vt 0.595697 1.000000
vt 0.000000 0.011327
vt 0.404303 -0.000000
vt 1.000000 0.988673
vt 0.521919 1.005602
vt 0.004832 -0.001821
vt 0.502451 0.001821
vt 0.999510 1.000140
vn 0.000000 0.128844 0.991665
vn 0.000000 0.128844 0.991665
vn 0.000000 0.128844 0.991665
vn 0.000000 0.128844 0.991665
vn 0.000000 0.991665 -0.128841
vn 0.000000 0.991665 -0.128841
vn 0.000000 0.991665 -0.128841
vn 0.000000 0.991665 -0.128841
vn 0.000000 -0.128844 -0.991665
vn 0.000000 -0.128844 -0.991665
vn 0.000000 -0.128844 -0.991665
vn 0.000000 -0.128844 -0.991665
vn 0.000000 -0.991665 0.128844
vn 0.000000 -0.991665 0.128844
vn 0.000000 -0.991665 0.128844
vn 0.000000 -0.991665 0.128844
vn 1.000000 0.000000 0.000000
vn 1.000000 0.000000 0.000000
vn 1.000000 0.000000 0.000000
vn 1.000000 0.000000 0.000000
vn -1.000000 0.000000 0.000000
vn -1.000000 0.000000 0.000000
vn -1.000000 0.000000 0.000000
vn -1.000000 0.000000 0.000000
s off
g polySurface10 polySurface1
usemtl phong2SG
f 3/1/1 1/2/2 2/3/3 4/4/4
f 5/5/5 3/6/6 4/7/7 6/8/8
f 7/9/9 5/10/10 6/11/11 8/12/12
f 1/13/13 7/14/14 8/15/15 2/16/16
f 4/17/17 2/18/18 8/19/19 6/20/20
f 5/21/21 7/22/22 1/23/23 3/24/24
g default
v -1.079492 0.578862 -2.174509
v -1.079492 0.603925 -2.139373
v -1.116177 0.603925 -2.174509
v 1.116177 0.603925 -2.174509
v 1.079492 0.603925 -2.139373
v 1.079492 0.578862 -2.174509
v -1.116177 0.654061 -2.174509
v -1.079492 0.654061 -2.139373
v -1.079492 0.679124 -2.174509
v 1.079492 0.679124 -2.174509
v 1.079492 0.654061 -2.139373
v 1.116177 0.654061 -2.174509
v -1.116177 0.654061 -2.983433
v -1.079492 0.679124 -2.983433
v -1.079492 0.654061 -3.018570
v 1.079492 0.654061 -3.018570
v 1.079492 0.679124 -2.983433
v 1.116177 0.654061 -2.983433
v -1.116177 0.603925 -2.983433
v -1.079492 0.603925 -3.018570
v -1.079492 0.578862 -2.983433
v 1.079492 0.578862 -2.983433
v 1.079492 0.603925 -3.018570
v 1.116177 0.603925 -2.983433
vt 0.379108 0.759991
vt 0.379108 0.990009
vt 0.375000 0.990009
vt 0.375000 0.759991
vt 0.620892 0.062494
vt 0.379108 0.062494
vt 0.379108 0.000000
vt 0.620892 0.000000
vt 0.365009 0.187506
vt 0.365009 0.062494
vt 0.379108 0.187506
vt 0.625000 0.759991
vt 0.625000 0.990009
vt 0.620892 0.990009
vt 0.620892 0.759991
vt 0.620892 0.187506
vt 0.634991 0.062494
vt 0.634991 0.187506
vt 0.375000 0.490009
vt 0.375000 0.259991
vt 0.379108 0.259991
vt 0.379108 0.490009
vt 0.620892 0.259991
vt 0.620892 0.490009
vt 0.625000 0.259991
vt 0.625000 0.490009
vt 0.375000 0.687506
vt 0.375000 0.562494
vt 0.379108 0.562494
vt 0.379108 0.687506
vt 0.620892 0.562494
vt 0.620892 0.687506
vt 0.625000 0.562494
vt 0.625000 0.687506
vt 0.865009 0.062494
vt 0.865009 0.187506
vt 0.134991 0.187506
vt 0.134991 0.062494
vn -0.564120 -0.825693 0.000000
vn -0.564120 -0.825693 0.000000
vn -0.564120 -0.825693 0.000000
vn -0.564120 -0.825693 0.000000
vn 0.000000 -0.814108 0.580713
vn 0.000000 -0.814108 0.580713
vn 0.000000 -0.814108 0.580713
vn 0.000000 -0.814108 0.580713
vn -0.691704 0.000000 0.722181
vn -0.691704 0.000000 0.722181
vn -0.691704 0.000000 0.722181
vn -0.691704 0.000000 0.722181
vn 0.564120 -0.825693 0.000000
vn 0.564120 -0.825693 0.000000
vn 0.564120 -0.825693 0.000000
vn 0.564120 -0.825693 0.000000
vn 0.691704 0.000000 0.722181
vn 0.691704 0.000000 0.722181
vn 0.691704 0.000000 0.722181
vn 0.691704 0.000000 0.722181
vn -0.564120 0.825693 0.000000
vn -0.564120 0.825693 0.000000
vn -0.564120 0.825693 0.000000
vn -0.564120 0.825693 0.000000
vn 0.000000 0.814108 0.580713
vn 0.000000 0.814108 0.580713
vn 0.000000 0.814108 0.580713
vn 0.000000 0.814108 0.580713
vn 0.564120 0.825693 0.000000
vn 0.564120 0.825693 0.000000
vn 0.564120 0.825693 0.000000
vn 0.564120 0.825693 0.000000
vn -0.691701 0.000000 -0.722184
vn -0.691701 0.000000 -0.722184
vn -0.691701 0.000000 -0.722184
vn -0.691701 0.000000 -0.722184
vn 0.000000 0.814108 -0.580713
vn 0.000000 0.814108 -0.580713
vn 0.000000 0.814108 -0.580713
vn 0.000000 0.814108 -0.580713
vn 0.691701 0.000000 -0.722184
vn 0.691701 0.000000 -0.722184
vn 0.691701 0.000000 -0.722184
vn 0.691701 0.000000 -0.722184
vn 0.000000 -0.814108 -0.580713
vn 0.000000 -0.814108 -0.580713
vn 0.000000 -0.814108 -0.580713
vn 0.000000 -0.814108 -0.580713
vn 0.000000 0.000000 1.000000
vn 0.000000 0.000000 1.000000
vn 0.000000 0.000000 1.000000
vn 0.000000 0.000000 1.000000
vn 0.000000 1.000000 0.000000
vn 0.000000 1.000000 0.000000
vn 0.000000 1.000000 0.000000
vn 0.000000 1.000000 0.000000
vn 0.000000 0.000000 -1.000000
vn 0.000000 0.000000 -1.000000
vn 0.000000 0.000000 -1.000000
vn 0.000000 0.000000 -1.000000
vn 0.000000 -1.000000 0.000000
vn 0.000000 -1.000000 0.000000
vn 0.000000 -1.000000 0.000000
vn 0.000000 -1.000000 0.000000
vn 1.000000 0.000000 0.000000
vn 1.000000 0.000000 0.000000
vn 1.000000 0.000000 0.000000
vn 1.000000 0.000000 0.000000
vn -1.000000 0.000000 0.000000
vn -1.000000 0.000000 0.000000
vn -1.000000 0.000000 0.000000
vn -1.000000 0.000000 0.000000
vn -0.486077 -0.711463 0.507493
vn -0.486077 -0.711463 0.507493
vn -0.486077 -0.711463 0.507493
vn 0.486077 -0.711463 0.507493
vn 0.486077 -0.711463 0.507493
vn 0.486077 -0.711463 0.507493
vn -0.486077 0.711462 0.507495
vn -0.486077 0.711462 0.507495
vn -0.486077 0.711462 0.507495
vn 0.486077 0.711462 0.507495
vn 0.486077 0.711462 0.507495
vn 0.486077 0.711462 0.507495
vn -0.486074 0.711464 -0.507496
vn -0.486074 0.711464 -0.507496
vn -0.486074 0.711464 -0.507496
vn 0.486074 0.711464 -0.507496
vn 0.486074 0.711464 -0.507496
vn 0.486074 0.711464 -0.507496
vn -0.486074 -0.711464 -0.507494
vn -0.486074 -0.711464 -0.507494
vn -0.486074 -0.711464 -0.507494
vn 0.486074 -0.711464 -0.507494
vn 0.486074 -0.711464 -0.507494
vn 0.486074 -0.711464 -0.507494
s off
g polySurface1 polySurface6
usemtl phong1SG
f 29/25/25 9/26/26 11/27/27 27/28/28
f 13/29/29 10/30/30 9/31/31 14/32/32
f 15/33/33 11/34/34 10/30/35 16/35/36
f 32/36/37 12/37/38 14/38/39 30/39/40
f 19/40/41 13/29/42 12/41/43 20/42/44
f 21/43/45 15/44/46 17/45/47 22/46/48
f 18/47/49 17/45/50 16/35/51 19/40/52
f 25/48/53 18/47/54 20/49/55 26/50/56
f 27/51/57 21/52/58 23/53/59 28/54/60
f 24/55/61 23/53/62 22/46/63 25/48/64
f 31/56/65 24/55/66 26/57/67 32/58/68
f 30/39/69 29/25/70 28/54/71 31/56/72
f 16/35/73 10/30/74 13/29/75 19/40/76
f 22/46/77 17/45/78 18/47/79 25/48/80
f 28/54/81 23/53/82 24/55/83 31/56/84
f 9/26/85 29/25/86 30/39/87 14/38/88
f 20/42/89 12/41/90 32/59/91 26/60/92
f 21/61/93 27/62/94 11/34/95 15/33/96
f 9/31/97 10/30/98 11/34/99
f 12/41/100 13/29/101 14/32/102
f 15/33/103 16/35/104 17/45/105
f 18/47/106 19/40/107 20/42/108
f 21/43/109 22/46/110 23/53/111
f 24/55/112 25/48/113 26/50/114
f 27/51/115 28/54/116 29/25/117
f 30/39/118 31/56/119 32/58/120
g default
v -1.084640 1.695266 -3.072910
v -1.084640 1.735344 -3.104594
v -1.121499 1.691367 -3.097668
v 1.121499 1.691367 -3.097668
v 1.084640 1.735344 -3.104594
v 1.084640 1.695266 -3.072910
v -1.121499 1.683567 -3.147194
v -1.084640 1.727544 -3.154120
v -1.084640 1.679667 -3.171952
v 1.084640 1.679667 -3.171952
v 1.084640 1.727544 -3.154120
v 1.121499 1.683567 -3.147194
v -1.121499 0.671102 -2.987733
v -1.084640 0.667203 -3.012491
v -1.084640 0.627125 -2.980807
v 1.084640 0.627125 -2.980807
v 1.084640 0.667203 -3.012491
v 1.121499 0.671102 -2.987733
v -1.121499 0.678902 -2.938208
v -1.084640 0.634925 -2.931281
v -1.084640 0.682802 -2.913450
v 1.084640 0.682802 -2.913450
v 1.084640 0.634925 -2.931281
v 1.121499 0.678902 -2.938208
vt 0.379108 0.759991
vt 0.379108 0.990009
vt 0.375000 0.990009
vt 0.375000 0.759991
vt 0.620892 0.062494
vt 0.379108 0.062494
vt 0.379108 0.000000
vt 0.620892 0.000000
vt 0.365009 0.187506
vt 0.365009 0.062494
vt 0.379108 0.187506
vt 0.625000 0.759991
vt 0.625000 0.990009
vt 0.620892 0.990009
vt 0.620892 0.759991
vt 0.620892 0.187506
vt 0.634991 0.062494
vt 0.634991 0.187506
vt 0.375000 0.490009
vt 0.375000 0.259991
vt 0.379108 0.259991
vt 0.379108 0.490009
vt 0.620892 0.259991
vt 0.620892 0.490009
vt 0.625000 0.259991
vt 0.625000 0.490009
vt 0.375000 0.687506
vt 0.375000 0.562494
vt 0.379108 0.562494
vt 0.379108 0.687506
vt 0.620892 0.562494
vt 0.620892 0.687506
vt 0.625000 0.562494
vt 0.625000 0.687506
vt 0.865009 0.062494
vt 0.865009 0.187506
vt 0.134991 0.187506
vt 0.134991 0.062494
vn -0.562292 0.128655 0.816869
vn -0.562292 0.128655 0.816869
vn -0.562292 0.128655 0.816869
vn -0.562292 0.128655 0.816869
vn 0.000000 0.620171 0.784467
vn 0.000000 0.620171 0.784467
vn 0.000000 0.620171 0.784467
vn 0.000000 0.620171 0.784467
vn -0.770262 0.629963 -0.099215
vn -0.770262 0.629963 -0.099215
vn -0.770262 0.629963 -0.099215
vn -0.770262 0.629963 -0.099215
vn 0.562292 0.128655 0.816869
vn 0.562292 0.128655 0.816869
vn 0.562292 0.128655 0.816869
vn 0.562292 0.128655 0.816869
vn 0.770262 0.629963 -0.099215
vn 0.770262 0.629963 -0.099215
vn 0.770262 0.629963 -0.099215
vn 0.770262 0.629963 -0.099215
vn -0.562289 -0.128655 -0.816871
vn -0.562289 -0.128655 -0.816871
vn -0.562289 -0.128655 -0.816871
vn -0.562289 -0.128655 -0.816871
vn 0.000000 0.349026 -0.937113
vn 0.000000 0.349026 -0.937113
vn 0.000000 0.349026 -0.937113
vn 0.000000 0.349026 -0.937113
vn 0.562289 -0.128655 -0.816871
vn 0.562289 -0.128655 -0.816871
vn 0.562289 -0.128655 -0.816871
vn 0.562289 -0.128655 -0.816871
vn -0.770264 -0.629960 0.099217
vn -0.770264 -0.629960 0.099217
vn -0.770264 -0.629960 0.099217
vn -0.770264 -0.629960 0.099217
vn 0.000000 -0.620174 -0.784464
vn 0.000000 -0.620174 -0.784464
vn 0.000000 -0.620174 -0.784464
vn 0.000000 -0.620174 -0.784464
vn 0.770262 -0.629963 0.099217
vn 0.770262 -0.629963 0.099217
vn 0.770262 -0.629963 0.099217
vn 0.770262 -0.629963 0.099217
vn 0.000000 -0.349026 0.937113
vn 0.000000 -0.349026 0.937113
vn 0.000000 -0.349026 0.937113
vn 0.000000 -0.349026 0.937113
vn 0.000000 0.987824 -0.155578
vn 0.000000 0.987824 -0.155578
vn 0.000000 0.987824 -0.155578
vn 0.000000 0.987824 -0.155578
vn 0.000000 -0.155579 -0.987823
vn 0.000000 -0.155579 -0.987823
vn 0.000000 -0.155579 -0.987823
vn 0.000000 -0.155579 -0.987823
vn 0.000000 -0.987824 0.155579
vn 0.000000 -0.987824 0.155579
vn 0.000000 -0.987824 0.155579
vn 0.000000 -0.987824 0.155579
vn 0.000000 0.155579 0.987823
vn 0.000000 0.155579 0.987823
vn 0.000000 0.155579 0.987823
vn 0.000000 0.155579 0.987823
vn 1.000000 0.000000 0.000000
vn 1.000000 0.000000 0.000000
vn 1.000000 0.000000 0.000000
vn 1.000000 0.000000 0.000000
vn -1.000000 0.000000 0.000000
vn -1.000000 0.000000 0.000000
vn -1.000000 0.000000 0.000000
vn -1.000000 0.000000 0.000000
vn -0.509750 0.533546 0.674895
vn -0.509750 0.533546 0.674895
vn -0.509750 0.533546 0.674895
vn 0.509750 0.533546 0.674895
vn 0.509750 0.533546 0.674895
vn 0.509750 0.533546 0.674895
vn -0.509759 0.300271 -0.806215
vn -0.509759 0.300271 -0.806215
vn -0.509759 0.300271 -0.806215
vn 0.509759 0.300271 -0.806215
vn 0.509759 0.300271 -0.806215
vn 0.509759 0.300271 -0.806215
vn -0.509759 -0.533544 -0.674890
vn -0.509759 -0.533544 -0.674890
vn -0.509759 -0.533544 -0.674890
vn 0.509759 -0.533544 -0.674890
vn 0.509759 -0.533544 -0.674890
vn 0.509759 -0.533544 -0.674890
vn -0.509748 -0.300274 0.806221
vn -0.509748 -0.300274 0.806221
vn -0.509748 -0.300274 0.806221
vn 0.509748 -0.300274 0.806221
vn 0.509748 -0.300274 0.806221
vn 0.509748 -0.300274 0.806221
s off
g polySurface1 polySurface9
usemtl phong1SG
f 53/63/121 33/64/122 35/65/123 51/66/124
f 37/67/125 34/68/126 33/69/127 38/70/128
f 39/71/129 35/72/130 34/68/131 40/73/132
f 56/74/133 36/75/134 38/76/135 54/77/136
f 43/78/137 37/67/138 36/79/139 44/80/140
f 45/81/141 39/82/142 41/83/143 46/84/144
f 42/85/145 41/83/146 40/73/147 43/78/148
f 49/86/149 42/85/150 44/87/151 50/88/152
f 51/89/153 45/90/154 47/91/155 52/92/156
f 48/93/157 47/91/158 46/84/159 49/86/160
f 55/94/161 48/93/162 50/95/163 56/96/164
f 54/77/165 53/63/166 52/92/167 55/94/168
f 40/73/169 34/68/170 37/67/171 43/78/172
f 46/84/173 41/83/174 42/85/175 49/86/176
f 52/92/177 47/91/178 48/93/179 55/94/180
f 33/64/181 53/63/182 54/77/183 38/76/184
f 44/80/185 36/79/186 56/97/187 50/98/188
f 45/99/189 51/100/190 35/72/191 39/71/192
f 33/69/193 34/68/194 35/72/195
f 36/79/196 37/67/197 38/70/198
f 39/71/199 40/73/200 41/83/201
f 42/85/202 43/78/203 44/80/204
f 45/81/205 46/84/206 47/91/207
f 48/93/208 49/86/209 50/88/210
f 51/89/211 52/92/212 53/63/213
f 54/77/214 55/94/215 56/96/216
g default
v -1.179364 0.167795 -2.101624
v 1.179364 0.167795 -2.101624
v -1.179364 0.565732 -2.101624
v 1.179364 0.565732 -2.101624
v -1.179364 0.565732 -3.143516
v 1.179364 0.565732 -3.143516
v -1.179364 0.167795 -3.143516
v 1.179364 0.167795 -3.143516
vt 0.000000 1.000000
vt 0.000000 0.000000
vt 1.000000 0.000000
vt 1.000000 1.000000
vt 0.000000 1.000000
vt 0.000000 0.000000
vt 1.000000 0.000000
vt 1.000000 1.000000
vt 0.000000 -0.000000
vt 0.000000 1.000000
vt 1.000000 1.000000
vt 1.000000 -0.000000
vt 0.375000 1.000000
vt 0.375000 0.750000
vt 0.625000 0.750000
vt 0.625000 1.000000
vt -0.000000 1.000000
vt -0.000000 0.000000
vt 1.000000 0.000000
vt 1.000000 1.000000
vt 1.000000 1.000000
vt 1.000000 -0.000000
vt 0.000000 -0.000000
vt 0.000000 1.000000
vn 0.000000 0.000000 1.000000
vn 0.000000 0.000000 1.000000
vn 0.000000 0.000000 1.000000
vn 0.000000 0.000000 1.000000
vn 0.000000 1.000000 0.000000
vn 0.000000 1.000000 0.000000
vn 0.000000 1.000000 0.000000
vn 0.000000 1.000000 0.000000
vn 0.000000 0.000000 -1.000000
vn 0.000000 0.000000 -1.000000
vn 0.000000 0.000000 -1.000000
vn 0.000000 0.000000 -1.000000
vn 0.000000 -1.000000 0.000000
vn 0.000000 -1.000000 0.000000
vn 0.000000 -1.000000 0.000000
vn 0.000000 -1.000000 0.000000
vn 1.000000 0.000000 0.000000
vn 1.000000 0.000000 0.000000
vn 1.000000 0.000000 0.000000
vn 1.000000 0.000000 0.000000
vn -1.000000 0.000000 0.000000
vn -1.000000 0.000000 0.000000
vn -1.000000 0.000000 0.000000
vn -1.000000 0.000000 0.000000
s off
g polySurface1 polySurface7
usemtl phong2SG
f 59/101/217 57/102/218 58/103/219 60/104/220
f 61/105/221 59/106/222 60/107/223 62/108/224
f 63/109/225 61/110/226 62/111/227 64/112/228
f 57/113/229 63/114/230 64/115/231 58/116/232
f 60/117/233 58/118/234 64/119/235 62/120/236
f 61/121/237 63/122/238 57/123/239 59/124/240
g default
v -1.037897 -0.060346 -2.212106
v 1.037897 -0.060346 -2.212106
v -1.037897 0.185203 -2.212106
v 1.037897 0.185203 -2.212106
v -1.037897 0.185203 -3.212106
v 1.037897 0.185203 -3.212106
v -1.037897 -0.060346 -3.212106
v 1.037897 -0.060346 -3.212106
vt 0.000000 1.000000
vt 1.000000 1.000000
vt 0.000000 0.000000
vt 1.000000 0.000000
vt 1.000000 1.000000
vt 0.000000 1.000000
vt 1.000000 1.000000
vt 0.000000 0.000000
vt 1.000000 0.000000
vt 0.000000 1.000000
vt 0.000000 0.000000
vt 1.000000 0.000000
vt 0.000000 0.000000
vt 0.000000 1.000000
vt 1.000000 1.000000
vt 1.000000 0.000000
vt 0.000000 1.000000
vt 0.000000 0.000000
vt 1.000000 0.000000
vt 1.000000 1.000000
vn 0.000000 0.000000 1.000000
vn 0.000000 0.000000 1.000000
vn 0.000000 0.000000 1.000000
vn 0.000000 0.000000 1.000000
vn 0.000000 1.000000 0.000000
vn 0.000000 1.000000 0.000000
vn 0.000000 1.000000 0.000000
vn 0.000000 1.000000 0.000000
vn 0.000000 0.000000 -1.000000
vn 0.000000 0.000000 -1.000000
vn 0.000000 0.000000 -1.000000
vn 0.000000 0.000000 -1.000000
vn 0.000000 -1.000000 0.000000
vn 0.000000 -1.000000 0.000000
vn 0.000000 -1.000000 0.000000
vn 0.000000 -1.000000 0.000000
vn 1.000000 0.000000 0.000000
vn 1.000000 0.000000 0.000000
vn 1.000000 0.000000 0.000000
vn 1.000000 0.000000 0.000000
vn -1.000000 0.000000 0.000000
vn -1.000000 0.000000 0.000000
vn -1.000000 0.000000 0.000000
vn -1.000000 0.000000 0.000000
s off
g polySurface1 polySurface8
usemtl lambert3SG
f 67/125/241 65/127/242 66/128/243 68/129/244
f 69/141/245 67/142/246 68/143/247 70/144/248
f 71/132/249 69/130/250 70/131/251 72/133/252
f 65/137/253 71/138/254 72/139/255 66/140/256
f 68/129/257 66/128/258 72/133/259 70/131/260
f 69/126/261 71/136/262 65/135/263 67/134/264
